#!OML:ASF I:\Actors\actors\Patient Classification 2\Patient 1\Session 1\actor1.ASF
:FULLY-SPECIFIED
:DEGREES
1008
root -0.902762 18.6228 5.92312 -3.73032 -2.14156 -2.44483
lowerback 3.9591 2.49529 7.14285
upperback 1.41704 3.61741 3.01737
thorax -0.508578 1.81524 -1.02975
lowerneck -6.39774 -4.15774 1.14116
upperneck 22.8791 -5.4048 -2.47878
head 8.00459 -2.6914 -1.47735
rclavicle -1.57816e-014 -3.57812e-014
rhumerus 19.8793 14.7488 -72.1267
rradius 66.3783
rwrist -53.6585
rhand -5.22161 -66.5506
rfingers 7.12502
rthumb 20.5805 -264.52
lclavicle -1.57816e-014 -3.57812e-014
lhumerus -43.4466 -3.5777 91.6228
lradius 52.2692
lwrist 9.63801
lhand -8.1731 -21.5556
lfingers 7.12502
lthumb 17.7423 7.65503
rfemur 13.4961 4.88854 18.4777
rtibia -3.18055e-015
rfoot -19.5821 -12.7291
rtoes -5.4515
lfemur -0.2596 -5.79544 -12.3404
ltibia 23.1365
lfoot -21.5631 11.8514
ltoes -57.8684
1009
root -0.903095 18.6212 5.92235 -3.81483 -1.94734 -2.35868
lowerback 4.11647 2.49473 7.19944
upperback 1.33133 3.6397 2.96174
thorax -0.676578 1.81994 -1.12961
lowerneck -6.28226 -4.22963 1.13609
upperneck 22.9799 -5.50466 -2.46813
head 8.01601 -2.737 -1.48029
rclavicle 5.34622e-015 -1.43125e-014
rhumerus 20.066 14.3479 -72.5179
rradius 65.4813
rwrist -52.5309
rhand -5.09726 -66.8134
rfingers 7.12502
rthumb 20.7 -264.271
lclavicle 5.34622e-015 -1.43125e-014
lhumerus -43.6364 -3.86701 91.6983
lradius 52.4643
lwrist 9.7971
lhand -8.14956 -21.5661
lfingers 7.12502
lthumb 17.7649 7.64247
rfemur 13.607 4.70744 18.3604
rtibia -1.74931e-014
rfoot -19.6337 -12.6657
rtoes -5.00907
lfemur -0.213706 -5.83762 -12.4353
ltibia 23.1303
lfoot -21.4904 11.7423
ltoes -57.9026
1010
root -0.903501 18.6196 5.92357 -3.91158 -1.80441 -2.31824
lowerback 4.1064 2.48938 7.23341
upperback 1.3685 3.63055 2.96793
thorax -0.631331 1.81752 -1.13986
lowerneck -6.2765 -4.26601 1.10234
upperneck 23.0073 -5.54316 -2.49788
head 8.02346 -2.76038 -1.48809
rclavicle 2.5828e-014 1.51076e-014
rhumerus 20.6489 14.1122 -72.7067
rradius 64.3635
rwrist -51.5658
rhand -4.92553 -67.048
rfingers 7.12502
rthumb 20.865 -264.054
lclavicle 2.5828e-014 1.51076e-014
lhumerus -43.6553 -3.94662 91.7507
lradius 52.6233
lwrist 9.86624
lhand -8.19937 -21.4912
lfingers 7.12502
lthumb 17.717 7.72169
rfemur 13.7326 4.5727 18.3058
rtibia -1.74931e-014
rfoot -19.625 -12.6702
rtoes -4.91992
lfemur -0.13381 -5.87182 -12.485
ltibia 23.1207
lfoot -21.4264 11.6843
ltoes -57.9408
1011
root -0.90464 18.6172 5.92574 -4.01173 -1.70847 -2.29623
lowerback 4.11656 2.49269 7.2782
upperback 1.39748 3.63587 2.97811
thorax -0.604419 1.8216 -1.15374
lowerneck -6.2249 -4.29068 1.04068
upperneck 22.9862 -5.56633 -2.50158
head 8.00841 -2.77678 -1.479
rclavicle -6.2788e-015 -7.95139e-016
rhumerus 21.4777 14.0952 -72.5828
rradius 63.0731
rwrist -51.0377
rhand -4.90347 -67.325
rfingers 7.12502
rthumb 20.8862 -263.779
lclavicle -6.2788e-015 -7.95139e-016
lhumerus -43.6858 -3.9878 91.7911
lradius 52.7642
lwrist 9.97157
lhand -8.26978 -21.4668
lfingers 7.12502
lthumb 17.6492 7.75214
rfemur 13.86 4.48219 18.2814
rtibia 3.18055e-015
rfoot -19.6038 -12.665
rtoes -4.99235
lfemur -0.0407497 -5.95697 -12.525
ltibia 23.1209
lfoot -21.4482 11.6471
ltoes -57.8942
1012
root -0.90586 18.6147 5.92863 -4.11038 -1.64085 -2.29446
lowerback 4.12476 2.51876 7.33879
upperback 1.42286 3.67214 2.99391
thorax -0.577192 1.84106 -1.17153
lowerneck -6.15048 -4.3189 0.96663
upperneck 22.9377 -5.596 -2.4879
head 7.9809 -2.7958 -1.46138
rclavicle 5.94708e-014 2.8625e-014
rhumerus 22.1322 14.001 -72.4908
rradius 61.9678
rwrist -50.5894
rhand -4.83492 -67.5481
rfingers 7.12502
rthumb 20.952 -263.564
lclavicle 5.94708e-014 2.8625e-014
lhumerus -43.7451 -4.03314 91.8606
lradius 52.9201
lwrist 10.1209
lhand -8.2816 -21.4262
lfingers 7.12502
lthumb 17.6379 7.79382
rfemur 13.9868 4.41848 18.279
rtibia -3.02153e-014
rfoot -19.631 -12.6048
rtoes -4.80483
lfemur 0.0642387 -6.03298 -12.5438
ltibia 23.1231
lfoot -21.4831 11.6121
ltoes -57.8574
1013
root -0.90673 18.6128 5.93155 -4.1885 -1.59889 -2.29133
lowerback 4.10233 2.56105 7.3761
upperback 1.4604 3.72528 3.02508
thorax -0.521484 1.86998 -1.15925
lowerneck -6.08529 -4.35024 0.904091
upperneck 22.85 -5.62474 -2.50631
head 7.94057 -2.8167 -1.45545
rclavicle -4.25399e-014 -1.74931e-014
rhumerus 22.6523 13.8304 -72.4522
rradius 61.0963
rwrist -50.1828
rhand -4.77306 -67.6144
rfingers 7.12502
rthumb 21.0114 -263.504
lclavicle -4.25399e-014 -1.74931e-014
lhumerus -43.8212 -4.0219 91.9526
lradius 53.0689
lwrist 10.1755
lhand -8.25752 -21.3022
lfingers 7.12502
lthumb 17.661 7.9157
rfemur 14.0861 4.37935 18.278
rtibia 1.11319e-014
rfoot -19.6377 -12.6039
rtoes -4.9103
lfemur 0.149433 -5.99947 -12.5429
ltibia 23.12
lfoot -21.4728 11.5407
ltoes -57.863
1014
root -0.908061 18.6114 5.93233 -4.23313 -1.52738 -2.22694
lowerback 4.0771 2.59038 7.32338
upperback 1.49105 3.75791 3.04561
thorax -0.47811 1.88806 -1.10791
lowerneck -6.03863 -4.39948 0.809104
upperneck 22.7802 -5.683 -2.48469
head 7.91161 -2.85043 -1.43442
rclavicle 2.6926e-014 3.4191e-014
rhumerus 23.0611 13.6198 -72.5036
rradius 60.4091
rwrist -49.8666
rhand -4.80049 -67.5455
rfingers 7.12502
rthumb 20.9851 -263.57
lclavicle 2.6926e-014 3.4191e-014
lhumerus -43.8811 -4.01872 92.0554
lradius 53.1538
lwrist 10.2298
lhand -8.20061 -21.2937
lfingers 7.12502
lthumb 17.7158 7.91927
rfemur 14.1479 4.31491 18.2076
rtibia -1.74931e-014
rfoot -19.6126 -12.6288
rtoes -5.18496
lfemur 0.174323 -5.96214 -12.5997
ltibia 23.1205
lfoot -21.4319 11.4528
ltoes -57.852
